<?xml version="1.0" encoding="UTF-8" standalone="no"?>
<!-- Created with Inkscape (http://www.inkscape.org/) -->

<svg
   xmlns:dc="http://purl.org/dc/elements/1.1/"
   xmlns:cc="http://creativecommons.org/ns#"
   xmlns:rdf="http://www.w3.org/1999/02/22-rdf-syntax-ns#"
   xmlns:svg="http://www.w3.org/2000/svg"
   xmlns="http://www.w3.org/2000/svg"
   xmlns:sodipodi="http://sodipodi.sourceforge.net/DTD/sodipodi-0.dtd"
   xmlns:inkscape="http://www.inkscape.org/namespaces/inkscape"
   width="64"
   height="64"
   viewBox="0 0 16.933333 16.933334"
   version="1.1"
   id="svg8"
   inkscape:version="0.92.5 (0.92.5+68)"
   sodipodi:docname="chat.svg">
  <defs
     id="defs2" />
  <sodipodi:namedview
     id="base"
     pagecolor="#ffffff"
     bordercolor="#666666"
     borderopacity="1.0"
     inkscape:pageopacity="0.0"
     inkscape:pageshadow="2"
     inkscape:zoom="7.8097535"
     inkscape:cx="41.1203"
     inkscape:cy="35.839997"
     inkscape:document-units="mm"
     inkscape:current-layer="layer1"
     showgrid="false"
     units="px"
     inkscape:window-width="1600"
     inkscape:window-height="863"
     inkscape:window-x="1920"
     inkscape:window-y="0"
     inkscape:window-maximized="1" />
  <metadata
     id="metadata5">
    <rdf:RDF>
      <cc:Work
         rdf:about="">
        <dc:format>image/svg+xml</dc:format>
        <dc:type
           rdf:resource="http://purl.org/dc/dcmitype/StillImage" />
        <dc:title />
      </cc:Work>
    </rdf:RDF>
  </metadata>
  <g
     inkscape:label="Capa 1"
     inkscape:groupmode="layer"
     id="layer1"
     transform="translate(0,-280.06665)">
    <g
       id="g833"
       transform="matrix(0.03065839,0,0,0.03065839,0.68315186,280.64757)" />
    <g
       id="g835"
       transform="matrix(0.03065839,0,0,0.03065839,0.68315186,280.64757)" />
    <g
       id="g837"
       transform="matrix(0.03065839,0,0,0.03065839,0.68315186,280.64757)" />
    <g
       id="g839"
       transform="matrix(0.03065839,0,0,0.03065839,0.68315186,280.64757)" />
    <g
       id="g841"
       transform="matrix(0.03065839,0,0,0.03065839,0.68315186,280.64757)" />
    <g
       id="g843"
       transform="matrix(0.03065839,0,0,0.03065839,0.68315186,280.64757)" />
    <g
       id="g845"
       transform="matrix(0.03065839,0,0,0.03065839,0.68315186,280.64757)" />
    <g
       id="g847"
       transform="matrix(0.03065839,0,0,0.03065839,0.68315186,280.64757)" />
    <g
       id="g849"
       transform="matrix(0.03065839,0,0,0.03065839,0.68315186,280.64757)" />
    <g
       id="g851"
       transform="matrix(0.03065839,0,0,0.03065839,0.68315186,280.64757)" />
    <g
       id="g853"
       transform="matrix(0.03065839,0,0,0.03065839,0.68315186,280.64757)" />
    <g
       id="g855"
       transform="matrix(0.03065839,0,0,0.03065839,0.68315186,280.64757)" />
    <g
       id="g857"
       transform="matrix(0.03065839,0,0,0.03065839,0.68315186,280.64757)" />
    <g
       id="g859"
       transform="matrix(0.03065839,0,0,0.03065839,0.68315186,280.64757)" />
    <g
       id="g861"
       transform="matrix(0.03065839,0,0,0.03065839,0.68315186,280.64757)" />
    <rect
       style="opacity:0;fill:#b2f0fb;fill-opacity:1;stroke:none;stroke-width:0.47929367;stroke-linecap:round;stroke-linejoin:miter;stroke-miterlimit:4;stroke-dasharray:0.47929366, 0.95858734;stroke-dashoffset:0;stroke-opacity:0.98360656;paint-order:stroke fill markers"
       id="rect954"
       width="16.933332"
       height="16.933332"
       x="-0.095383301"
       y="280.11206"
       inkscape:export-filename="/var/www/chamilo11/app/Resources/public/css/themes/colegio/icons/64/chat.png"
       inkscape:export-xdpi="96.000008"
       inkscape:export-ydpi="96.000008" />
    <g
       id="g2540"
       transform="matrix(0.02370963,0,0,0.02370963,2.4274463,282.88071)"
       inkscape:export-filename="/var/www/chamilo11/app/Resources/public/css/themes/colegio/icons/64/chat.png"
       inkscape:export-xdpi="96"
       inkscape:export-ydpi="96"
       style="fill:#3f6ad8;fill-opacity:1">
      <g
         id="g2429"
         style="fill:#3f6ad8;fill-opacity:1">
        <g
           id="g2427"
           style="fill:#3f6ad8;fill-opacity:1">
          <path
             id="path2425"
             d="M 372.29,50.758 H 28.831 C 12.933,50.758 0,63.691 0,79.588 v 206.056 c 0,15.897 12.933,28.831 28.831,28.831 h 22.271 v 76.71 c 0,4.884 2.942,9.289 7.456,11.159 1.494,0.62 3.064,0.92 4.62,0.92 3.144,0 6.232,-1.228 8.543,-3.538 l 85.251,-85.25 h 17.104 c 6.671,0 12.078,-5.407 12.078,-12.078 0,-6.672 -5.409,-12.079 -12.078,-12.079 0,0 -22.69,0.016 -22.927,0.04 -2.812,0.191 -5.572,1.349 -7.722,3.498 l -68.169,68.169 c 0,0 -0.021,-60.392 -0.06,-60.705 -0.545,-6.166 -5.717,-11.002 -12.024,-11.002 H 28.831 c -2.578,0 -4.674,-2.097 -4.674,-4.674 V 79.588 c 0,-2.578 2.097,-4.674 4.674,-4.674 H 372.29 c 2.578,0 4.674,2.097 4.674,4.674 v 79.055 c 0,6.671 5.409,12.078 12.078,12.078 6.669,0 12.078,-5.407 12.078,-12.078 V 79.588 c 0,-15.897 -12.933,-28.83 -28.83,-28.83 z"
             inkscape:connector-curvature="0"
             style="fill:#3f6ad8;fill-opacity:1" />
        </g>
      </g>
      <g
         id="g2435"
         style="fill:#3f6ad8;fill-opacity:1">
        <g
           id="g2433"
           style="fill:#3f6ad8;fill-opacity:1">
          <path
             id="path2431"
             d="M 483.169,198.492 H 242.754 c -15.897,0 -28.831,12.933 -28.831,28.831 v 140.57 c 0,15.897 12.933,28.831 28.831,28.831 h 150.514 l 60.98,60.98 c 2.311,2.311 5.4,3.538 8.543,3.538 1.556,0 3.126,-0.301 4.62,-0.92 4.512,-1.87 7.456,-6.273 7.456,-11.159 v -52.44 h 8.301 c 15.897,0 28.831,-12.933 28.831,-28.831 v -140.57 c 10e-4,-15.897 -12.932,-28.83 -28.83,-28.83 z m 4.675,169.401 c 0,2.577 -2.097,4.674 -4.674,4.674 h -20.376 c -6.356,0 -11.554,4.912 -12.031,11.147 -0.031,0.264 -0.051,36.29 -0.051,36.29 l -43.854,-43.855 c -0.046,-0.046 -0.094,-0.089 -0.14,-0.135 -0.172,-0.168 -0.335,-0.314 -0.489,-0.445 -2.126,-1.864 -4.903,-3.003 -7.951,-3.003 H 242.754 c -2.578,0 -4.674,-2.097 -4.674,-4.674 v -140.57 c 0,-2.578 2.097,-4.674 4.674,-4.674 H 483.17 c 2.577,0 4.674,2.097 4.674,4.674 z"
             inkscape:connector-curvature="0"
             style="fill:#3f6ad8;fill-opacity:1" />
        </g>
      </g>
      <g
         id="g2441"
         style="fill:#3f6ad8;fill-opacity:1">
        <g
           id="g2439"
           style="fill:#3f6ad8;fill-opacity:1">
          <path
             id="path2437"
             d="m 362.964,285.53 c -6.667,0 -12.078,5.411 -12.078,12.078 0,6.667 5.411,12.078 12.078,12.078 6.668,0 12.078,-5.411 12.078,-12.078 0,-6.667 -5.411,-12.078 -12.078,-12.078 z"
             inkscape:connector-curvature="0"
             style="fill:#3f6ad8;fill-opacity:1" />
        </g>
      </g>
      <g
         id="g2447"
         style="fill:#3f6ad8;fill-opacity:1">
        <g
           id="g2445"
           style="fill:#3f6ad8;fill-opacity:1">
          <path
             id="path2443"
             d="m 310.472,130.611 c 0,0 -219.822,0 -219.822,0 -6.67,0 -12.078,5.407 -12.078,12.078 0,6.671 5.409,12.078 12.078,12.078 h 219.822 c 6.67,0 12.078,-5.407 12.078,-12.078 0,-6.671 -5.408,-12.078 -12.078,-12.078 z"
             inkscape:connector-curvature="0"
             style="fill:#3f6ad8;fill-opacity:1" />
        </g>
      </g>
      <g
         id="g2453"
         style="fill:#3f6ad8;fill-opacity:1">
        <g
           id="g2451"
           style="fill:#3f6ad8;fill-opacity:1">
          <path
             id="path2449"
             d="M 174.075,210.465 H 90.65 c -6.67,0 -12.078,5.407 -12.078,12.078 0,6.671 5.409,12.078 12.078,12.078 h 83.425 c 6.671,0 12.078,-5.407 12.078,-12.078 0,-6.671 -5.408,-12.078 -12.078,-12.078 z"
             inkscape:connector-curvature="0"
             style="fill:#3f6ad8;fill-opacity:1" />
        </g>
      </g>
      <g
         id="g2459"
         style="fill:#3f6ad8;fill-opacity:1">
        <g
           id="g2457"
           style="fill:#3f6ad8;fill-opacity:1">
          <path
             id="path2455"
             d="m 306.837,285.53 c -6.666,0 -12.078,5.411 -12.078,12.078 0,6.667 5.412,12.078 12.078,12.078 6.668,0 12.078,-5.411 12.078,-12.078 0,-6.667 -5.41,-12.078 -12.078,-12.078 z"
             inkscape:connector-curvature="0"
             style="fill:#3f6ad8;fill-opacity:1" />
        </g>
      </g>
      <g
         id="g2465"
         style="fill:#3f6ad8;fill-opacity:1">
        <g
           id="g2463"
           style="fill:#3f6ad8;fill-opacity:1">
          <path
             id="path2461"
             d="m 419.079,285.53 c -6.667,0 -12.078,5.411 -12.078,12.078 0,6.667 5.411,12.078 12.078,12.078 6.668,0 12.078,-5.411 12.078,-12.078 0,-6.667 -5.411,-12.078 -12.078,-12.078 z"
             inkscape:connector-curvature="0"
             style="fill:#3f6ad8;fill-opacity:1" />
        </g>
      </g>
      <g
         id="g2467"
         style="fill:#3f6ad8;fill-opacity:1" />
      <g
         id="g2469"
         style="fill:#3f6ad8;fill-opacity:1" />
      <g
         id="g2471"
         style="fill:#3f6ad8;fill-opacity:1" />
      <g
         id="g2473"
         style="fill:#3f6ad8;fill-opacity:1" />
      <g
         id="g2475"
         style="fill:#3f6ad8;fill-opacity:1" />
      <g
         id="g2477"
         style="fill:#3f6ad8;fill-opacity:1" />
      <g
         id="g2479"
         style="fill:#3f6ad8;fill-opacity:1" />
      <g
         id="g2481"
         style="fill:#3f6ad8;fill-opacity:1" />
      <g
         id="g2483"
         style="fill:#3f6ad8;fill-opacity:1" />
      <g
         id="g2485"
         style="fill:#3f6ad8;fill-opacity:1" />
      <g
         id="g2487"
         style="fill:#3f6ad8;fill-opacity:1" />
      <g
         id="g2489"
         style="fill:#3f6ad8;fill-opacity:1" />
      <g
         id="g2491"
         style="fill:#3f6ad8;fill-opacity:1" />
      <g
         id="g2493"
         style="fill:#3f6ad8;fill-opacity:1" />
      <g
         id="g2495"
         style="fill:#3f6ad8;fill-opacity:1" />
    </g>
  </g>
</svg>
