<?xml version="1.0" encoding="UTF-8" standalone="no"?>
<!-- Created with Inkscape (http://www.inkscape.org/) -->

<svg
   xmlns:dc="http://purl.org/dc/elements/1.1/"
   xmlns:cc="http://creativecommons.org/ns#"
   xmlns:rdf="http://www.w3.org/1999/02/22-rdf-syntax-ns#"
   xmlns:svg="http://www.w3.org/2000/svg"
   xmlns="http://www.w3.org/2000/svg"
   xmlns:sodipodi="http://sodipodi.sourceforge.net/DTD/sodipodi-0.dtd"
   xmlns:inkscape="http://www.inkscape.org/namespaces/inkscape"
   width="64"
   height="64"
   viewBox="0 0 16.933333 16.933334"
   version="1.1"
   id="svg8"
   inkscape:version="0.92.5 (0.92.5+68)"
   sodipodi:docname="survey.svg">
  <defs
     id="defs2" />
  <sodipodi:namedview
     id="base"
     pagecolor="#ffffff"
     bordercolor="#666666"
     borderopacity="1.0"
     inkscape:pageopacity="0.0"
     inkscape:pageshadow="2"
     inkscape:zoom="3.9048766"
     inkscape:cx="47.222375"
     inkscape:cy="-13.672649"
     inkscape:document-units="mm"
     inkscape:current-layer="layer1"
     showgrid="false"
     units="px"
     inkscape:window-width="1920"
     inkscape:window-height="1016"
     inkscape:window-x="0"
     inkscape:window-y="27"
     inkscape:window-maximized="1" />
  <metadata
     id="metadata5">
    <rdf:RDF>
      <cc:Work
         rdf:about="">
        <dc:format>image/svg+xml</dc:format>
        <dc:type
           rdf:resource="http://purl.org/dc/dcmitype/StillImage" />
        <dc:title></dc:title>
      </cc:Work>
    </rdf:RDF>
  </metadata>
  <g
     inkscape:label="Capa 1"
     inkscape:groupmode="layer"
     id="layer1"
     transform="translate(0,-280.06665)">
    <g
       id="g833"
       transform="matrix(0.03065839,0,0,0.03065839,0.68315186,280.64757)" />
    <g
       id="g835"
       transform="matrix(0.03065839,0,0,0.03065839,0.68315186,280.64757)" />
    <g
       id="g837"
       transform="matrix(0.03065839,0,0,0.03065839,0.68315186,280.64757)" />
    <g
       id="g839"
       transform="matrix(0.03065839,0,0,0.03065839,0.68315186,280.64757)" />
    <g
       id="g841"
       transform="matrix(0.03065839,0,0,0.03065839,0.68315186,280.64757)" />
    <g
       id="g843"
       transform="matrix(0.03065839,0,0,0.03065839,0.68315186,280.64757)" />
    <g
       id="g845"
       transform="matrix(0.03065839,0,0,0.03065839,0.68315186,280.64757)" />
    <g
       id="g847"
       transform="matrix(0.03065839,0,0,0.03065839,0.68315186,280.64757)" />
    <g
       id="g849"
       transform="matrix(0.03065839,0,0,0.03065839,0.68315186,280.64757)" />
    <g
       id="g851"
       transform="matrix(0.03065839,0,0,0.03065839,0.68315186,280.64757)" />
    <g
       id="g853"
       transform="matrix(0.03065839,0,0,0.03065839,0.68315186,280.64757)" />
    <g
       id="g855"
       transform="matrix(0.03065839,0,0,0.03065839,0.68315186,280.64757)" />
    <g
       id="g857"
       transform="matrix(0.03065839,0,0,0.03065839,0.68315186,280.64757)" />
    <g
       id="g859"
       transform="matrix(0.03065839,0,0,0.03065839,0.68315186,280.64757)" />
    <g
       id="g861"
       transform="matrix(0.03065839,0,0,0.03065839,0.68315186,280.64757)" />
    <rect
       style="opacity:0;fill:#b2f0fb;fill-opacity:1;stroke:none;stroke-width:0.47929367;stroke-linecap:round;stroke-linejoin:miter;stroke-miterlimit:4;stroke-dasharray:0.47929366, 0.95858734;stroke-dashoffset:0;stroke-opacity:0.98360656;paint-order:stroke fill markers"
       id="rect954"
       width="16.933332"
       height="16.933332"
       x="-0.012357161"
       y="280.35983"
       inkscape:export-filename="/var/www/chamilo11/app/Resources/public/css/themes/colegio/icons/64/survey.png"
       inkscape:export-xdpi="96.000008"
       inkscape:export-ydpi="96.000008" />
    <g
       id="g1983"
       transform="matrix(0.02334201,0,0,0.02334201,2.5850059,283.07575)"
       style="fill:#3f6ad8;fill-opacity:1"
       inkscape:export-filename="/var/www/chamilo11/app/Resources/public/css/themes/colegio/icons/64/survey.png"
       inkscape:export-xdpi="96"
       inkscape:export-ydpi="96">
      <g
         id="g1925"
         style="fill:#3f6ad8;fill-opacity:1">
	<g
   id="g1923"
   style="fill:#3f6ad8;fill-opacity:1">
		<path
   id="path1919"
   d="M 411.75,250.2 H 226.15 V 64.6 c 0,-7.5 -6,-13.5 -13.5,-13.5 -117.2,0 -212.6,95.4 -212.6,212.6 0,117.2 95.4,212.6 212.6,212.6 117.2,0 212.6,-95.4 212.6,-212.6 0,-7.4 -6.1,-13.5 -13.5,-13.5 z m -199.1,199.1 c -102.3,0 -185.6,-83.3 -185.6,-185.6 0,-97.8 76,-178.2 172.1,-185.1 v 185.1 c 0,7.5 6,13.5 13.5,13.5 h 185.1 c -6.9,96.1 -87.3,172.1 -185.1,172.1 z"
   inkscape:connector-curvature="0"
   style="fill:#3f6ad8;fill-opacity:1" />

		<path
   id="path1921"
   d="m 476.25,211.9 c -0.2,-51.6 -19.1,-101.3 -53.2,-140 C 382.65,26.2 324.65,0 263.65,0 c -7.5,0 -13.5,6 -13.5,13.5 v 199.1 c 0,7.5 6,13.5 13.5,13.5 h 199.1 v 0 c 7.5,0 13.5,-6 13.5,-13.5 0,-0.2 0,-0.4 0,-0.7 z M 277.15,199.2 V 27.6 c 48.2,3.5 93.4,25.8 125.6,62.3 27,30.5 43,68.9 46,109.3 z"
   inkscape:connector-curvature="0"
   style="fill:#3f6ad8;fill-opacity:1" />

	</g>

</g>
      <g
         id="g1927"
         style="fill:#3f6ad8;fill-opacity:1">
</g>
      <g
         id="g1929"
         style="fill:#3f6ad8;fill-opacity:1">
</g>
      <g
         id="g1931"
         style="fill:#3f6ad8;fill-opacity:1">
</g>
      <g
         id="g1933"
         style="fill:#3f6ad8;fill-opacity:1">
</g>
      <g
         id="g1935"
         style="fill:#3f6ad8;fill-opacity:1">
</g>
      <g
         id="g1937"
         style="fill:#3f6ad8;fill-opacity:1">
</g>
      <g
         id="g1939"
         style="fill:#3f6ad8;fill-opacity:1">
</g>
      <g
         id="g1941"
         style="fill:#3f6ad8;fill-opacity:1">
</g>
      <g
         id="g1943"
         style="fill:#3f6ad8;fill-opacity:1">
</g>
      <g
         id="g1945"
         style="fill:#3f6ad8;fill-opacity:1">
</g>
      <g
         id="g1947"
         style="fill:#3f6ad8;fill-opacity:1">
</g>
      <g
         id="g1949"
         style="fill:#3f6ad8;fill-opacity:1">
</g>
      <g
         id="g1951"
         style="fill:#3f6ad8;fill-opacity:1">
</g>
      <g
         id="g1953"
         style="fill:#3f6ad8;fill-opacity:1">
</g>
      <g
         id="g1955"
         style="fill:#3f6ad8;fill-opacity:1">
</g>
    </g>
  </g>
</svg>
